<?xml version="1.0" encoding="utf-8" standalone="no"?>
<!DOCTYPE svg PUBLIC "-//W3C//DTD SVG 1.1//EN"
  "http://www.w3.org/Graphics/SVG/1.1/DTD/svg11.dtd">
<!-- Created with matplotlib (https://matplotlib.org/) -->
<svg height="720pt" version="1.1" viewBox="0 0 1080 720" width="1080pt" xmlns="http://www.w3.org/2000/svg" xmlns:xlink="http://www.w3.org/1999/xlink">
 <defs>
  <style type="text/css">
*{stroke-linecap:butt;stroke-linejoin:round;}
  </style>
 </defs>
 <g id="figure_1">
  <g id="patch_1">
   <path d="M 0 720 
L 1080 720 
L 1080 0 
L 0 0 
z
" style="fill:#ffffff;"/>
  </g>
  <g id="axes_1">
   <g id="patch_2">
    <path d="M 135 640.8 
L 972 640.8 
L 972 86.4 
L 135 86.4 
z
" style="fill:#e5e5e5;"/>
   </g>
   <g id="matplotlib.axis_1">
    <g id="xtick_1">
     <g id="line2d_1">
      <path clip-path="url(#pd83e78ae36)" d="M 173.045455 640.8 
L 173.045455 86.4 
" style="fill:none;stroke:#ffffff;stroke-linecap:square;stroke-width:0.8;"/>
     </g>
     <g id="line2d_2">
      <defs>
       <path d="M 0 0 
L 0 3.5 
" id="m7a6e19fdb0" style="stroke:#555555;stroke-width:0.8;"/>
      </defs>
      <g>
       <use style="fill:#555555;stroke:#555555;stroke-width:0.8;" x="173.045455" xlink:href="#m7a6e19fdb0" y="640.8"/>
      </g>
     </g>
     <g id="text_1">
      <!-- ﻿美国 -->
      <defs>
       <path d="M 87.5 -5.078125 
L 10.9375 -5.078125 
L 10.9375 75.390625 
L 87.5 75.390625 
z
M 84.375 72.65625 
L 13.671875 72.65625 
L 13.671875 -2.34375 
L 84.375 -2.34375 
z
" id="SimHei-65279"/>
       <path d="M 72.65625 78.125 
Q 70.703125 76.5625 64.84375 67.96875 
L 75 67.96875 
Q 82.8125 67.96875 87.109375 68.359375 
L 87.109375 61.71875 
Q 82.8125 62.109375 75 62.109375 
L 53.90625 62.109375 
L 53.90625 52.734375 
L 69.921875 52.734375 
Q 76.171875 52.734375 82.03125 53.125 
L 82.03125 46.875 
Q 76.171875 47.265625 69.921875 47.265625 
L 53.90625 47.265625 
L 53.90625 38.28125 
L 78.515625 38.28125 
Q 85.9375 38.28125 92.1875 38.671875 
L 92.1875 32.03125 
Q 86.328125 32.421875 78.515625 32.421875 
L 22.265625 32.421875 
Q 14.0625 32.421875 8.203125 32.03125 
L 8.203125 38.671875 
Q 14.0625 38.28125 22.265625 38.28125 
L 46.875 38.28125 
L 46.875 47.265625 
L 32.03125 47.265625 
Q 25.390625 47.265625 18.75 46.875 
L 18.75 53.125 
Q 25.390625 52.734375 32.03125 52.734375 
L 46.875 52.734375 
L 46.875 62.109375 
L 26.953125 62.109375 
Q 20.703125 62.109375 13.28125 61.71875 
L 13.28125 68.359375 
Q 20.703125 67.96875 26.953125 67.96875 
L 35.15625 67.96875 
Q 32.8125 72.265625 28.125 77.734375 
Q 31.25 79.6875 33.984375 81.640625 
L 42.1875 71.09375 
Q 38.671875 69.53125 36.328125 67.96875 
L 57.421875 67.96875 
Q 60.9375 73.4375 64.84375 82.421875 
Q 67.96875 80.078125 72.65625 78.125 
z
M 8.203125 -3.515625 
Q 14.84375 -2.734375 22.265625 -0.390625 
Q 29.6875 1.953125 35.546875 6.4375 
Q 41.40625 10.9375 43.75 16.40625 
L 29.296875 16.40625 
Q 20.703125 16.40625 11.328125 16.015625 
L 11.328125 22.65625 
Q 20.703125 22.265625 29.296875 22.265625 
L 45.3125 22.265625 
Q 45.703125 27.34375 45.703125 30.859375 
Q 50.78125 29.296875 54.6875 29.296875 
Q 53.515625 25.78125 52.734375 22.265625 
L 71.875 22.265625 
Q 82.03125 22.265625 89.453125 22.65625 
L 89.453125 16.015625 
Q 82.03125 16.40625 72.265625 16.40625 
L 56.25 16.40625 
Q 60.9375 10.9375 65.421875 7.8125 
Q 69.921875 4.6875 73.4375 3.125 
Q 76.953125 1.5625 81.640625 0.1875 
Q 86.328125 -1.171875 94.53125 -2.34375 
Q 92.1875 -5.859375 89.84375 -10.546875 
Q 80.859375 -8.59375 74.609375 -5.65625 
Q 68.359375 -2.734375 61.90625 2.140625 
Q 55.46875 7.03125 50.390625 14.0625 
Q 46.875 8.203125 43.546875 4.6875 
Q 40.234375 1.171875 35.15625 -1.953125 
Q 30.078125 -5.078125 24.609375 -7.21875 
Q 19.140625 -9.375 12.890625 -10.9375 
Q 11.71875 -7.421875 8.203125 -3.515625 
z
" id="SimHei-32654"/>
       <path d="M 90.234375 77.734375 
Q 89.84375 67.96875 89.84375 55.859375 
L 89.84375 14.0625 
Q 89.84375 1.953125 90.234375 -9.765625 
L 82.421875 -9.765625 
L 82.421875 -4.296875 
L 17.578125 -4.296875 
L 17.578125 -10.15625 
L 9.765625 -10.15625 
Q 10.15625 1.953125 10.15625 14.84375 
L 10.15625 55.859375 
Q 10.15625 67.578125 9.765625 77.734375 
L 90.234375 77.734375 
z
M 82.421875 1.5625 
L 82.421875 71.875 
L 17.578125 71.875 
L 17.578125 1.5625 
z
M 62.109375 61.328125 
Q 67.96875 61.328125 74.609375 61.71875 
L 74.609375 54.6875 
Q 68.75 55.078125 62.109375 55.078125 
L 52.34375 55.078125 
L 52.34375 42.1875 
L 59.375 42.1875 
Q 66.40625 42.1875 72.65625 42.578125 
L 72.65625 35.546875 
Q 66.40625 35.9375 59.375 35.9375 
L 52.34375 35.9375 
L 52.34375 18.359375 
L 63.28125 18.359375 
Q 70.3125 18.359375 76.5625 18.75 
L 76.5625 11.71875 
Q 70.703125 12.109375 63.28125 12.109375 
L 36.71875 12.109375 
Q 30.078125 12.109375 23.4375 11.71875 
L 23.4375 18.75 
Q 30.078125 18.359375 36.71875 18.359375 
L 45.3125 18.359375 
L 45.3125 35.9375 
L 39.84375 35.9375 
Q 33.203125 35.9375 27.34375 35.546875 
L 27.34375 42.578125 
Q 33.203125 42.1875 39.84375 42.1875 
L 45.3125 42.1875 
L 45.3125 55.078125 
L 39.453125 55.078125 
Q 32.421875 55.078125 25.78125 54.6875 
L 25.78125 61.71875 
Q 32.421875 61.328125 39.453125 61.328125 
z
M 63.28125 33.203125 
Q 65.234375 31.25 71.09375 25 
Q 67.1875 22.65625 64.453125 20.703125 
Q 63.28125 22.265625 57.8125 28.90625 
Q 60.9375 31.25 63.28125 33.203125 
z
" id="SimHei-22269"/>
      </defs>
      <g style="fill:#555555;" transform="translate(156.665989 701.661649)rotate(-45)scale(0.2 -0.2)">
       <use xlink:href="#SimHei-65279"/>
       <use x="100" xlink:href="#SimHei-32654"/>
       <use x="200" xlink:href="#SimHei-22269"/>
      </g>
     </g>
    </g>
    <g id="xtick_2">
     <g id="line2d_3">
      <path clip-path="url(#pd83e78ae36)" d="M 268.159091 640.8 
L 268.159091 86.4 
" style="fill:none;stroke:#ffffff;stroke-linecap:square;stroke-width:0.8;"/>
     </g>
     <g id="line2d_4">
      <g>
       <use style="fill:#555555;stroke:#555555;stroke-width:0.8;" x="268.159091" xlink:href="#m7a6e19fdb0" y="640.8"/>
      </g>
     </g>
     <g id="text_2">
      <!-- 意大利 -->
      <defs>
       <path d="M 80.859375 45.3125 
Q 80.46875 37.890625 80.46875 30.859375 
Q 80.46875 24.21875 80.859375 16.40625 
L 18.75 16.40625 
Q 19.140625 24.21875 19.140625 31.25 
Q 19.140625 38.28125 18.75 45.3125 
L 80.859375 45.3125 
z
M 24.609375 66.40625 
Q 17.578125 66.40625 9.765625 66.015625 
L 9.765625 72.65625 
Q 17.96875 72.265625 24.609375 72.265625 
L 48.046875 72.265625 
Q 47.65625 75.390625 45.3125 80.46875 
Q 49.609375 80.859375 54.296875 82.03125 
Q 55.859375 75 56.640625 72.265625 
L 74.609375 72.265625 
Q 82.421875 72.265625 88.28125 72.65625 
L 88.28125 66.015625 
Q 81.640625 66.40625 74.609375 66.40625 
L 35.546875 66.40625 
Q 38.28125 62.5 40.234375 58.984375 
L 34.765625 56.640625 
L 59.375 56.640625 
Q 60.9375 58.59375 62.890625 65.625 
Q 67.578125 64.453125 71.484375 63.28125 
Q 68.75 59.765625 67.1875 56.640625 
L 78.90625 56.640625 
Q 87.5 56.640625 94.921875 57.03125 
L 94.921875 50.390625 
Q 87.5 50.78125 78.90625 50.78125 
L 20.3125 50.78125 
Q 12.109375 50.78125 5.078125 50.390625 
L 5.078125 57.03125 
Q 12.5 56.640625 20.3125 56.640625 
L 33.203125 56.640625 
Q 32.03125 59.765625 29.296875 63.28125 
Q 31.640625 64.453125 34.765625 66.40625 
z
M 36.328125 11.328125 
Q 35.9375 7.03125 35.9375 4.296875 
Q 35.9375 1.953125 36.125 0 
Q 36.328125 -1.953125 39.84375 -1.953125 
L 62.890625 -1.953125 
Q 65.234375 -1.171875 66.796875 7.03125 
Q 69.921875 4.296875 75.390625 2.734375 
Q 72.65625 -4.6875 70.703125 -6.25 
Q 68.75 -7.8125 64.0625 -7.8125 
L 35.546875 -7.8125 
Q 28.90625 -7.421875 28.515625 -4.484375 
Q 28.125 -1.5625 28.125 2.34375 
Q 28.125 6.25 27.34375 11.328125 
L 36.328125 11.328125 
z
M 72.65625 33.59375 
L 72.65625 39.84375 
L 26.953125 39.84375 
L 26.953125 33.59375 
z
M 72.65625 22.265625 
L 72.65625 27.734375 
L 26.953125 27.734375 
L 26.953125 22.265625 
z
M 84.375 13.28125 
Q 91.796875 3.515625 95.703125 -1.171875 
Q 92.1875 -3.90625 89.453125 -5.859375 
Q 86.71875 -1.5625 78.125 8.984375 
Q 80.46875 10.9375 84.375 13.28125 
z
M 19.921875 8.984375 
Q 16.40625 1.5625 12.5 -8.59375 
Q 7.8125 -6.640625 4.6875 -5.859375 
Q 9.375 0.390625 12.5 11.328125 
Q 16.015625 9.765625 19.921875 8.984375 
z
M 51.953125 15.234375 
Q 56.25 9.375 58.984375 5.46875 
Q 55.46875 3.125 51.953125 1.171875 
Q 50.78125 4.6875 45.3125 10.9375 
Q 47.65625 12.890625 51.953125 15.234375 
z
" id="SimHei-24847"/>
       <path d="M 45.3125 53.125 
Q 45.703125 66.796875 45.5 71.484375 
Q 45.3125 76.171875 44.921875 80.46875 
Q 49.609375 79.6875 55.46875 79.296875 
Q 54.296875 75.390625 53.703125 67.96875 
Q 53.125 60.546875 53.125 53.125 
L 73.046875 53.125 
Q 83.59375 53.125 92.578125 53.90625 
L 92.578125 45.3125 
Q 84.765625 45.703125 76.5625 45.703125 
L 53.515625 45.703125 
Q 55.078125 39.0625 58.984375 32.21875 
Q 62.890625 25.390625 66.984375 20.109375 
Q 71.09375 14.84375 78.3125 8.984375 
Q 85.546875 3.125 94.140625 -0.78125 
Q 91.015625 -3.125 87.890625 -8.59375 
Q 80.859375 -4.6875 74.015625 1.171875 
Q 67.1875 7.03125 60.34375 16.59375 
Q 53.515625 26.171875 50 34.375 
Q 46.875 25.78125 43.359375 20.109375 
Q 39.84375 14.453125 35.734375 9.765625 
Q 31.640625 5.078125 25.1875 0.390625 
Q 18.75 -4.296875 10.546875 -8.984375 
Q 7.421875 -4.296875 3.515625 -0.78125 
Q 11.71875 1.953125 19.71875 7.03125 
Q 27.734375 12.109375 32.8125 18.546875 
Q 37.890625 25 41.015625 32.03125 
Q 44.140625 39.0625 44.921875 45.703125 
L 23.4375 45.703125 
Q 14.0625 45.703125 8.59375 45.3125 
L 8.59375 53.90625 
Q 14.0625 53.515625 23.4375 53.125 
z
" id="SimHei-22823"/>
       <path d="M 37.5 41.40625 
Q 46.09375 33.59375 54.6875 23.828125 
Q 51.953125 21.484375 48.828125 17.96875 
Q 43.359375 26.171875 37.5 32.421875 
L 37.5 3.515625 
Q 37.5 -5.859375 37.890625 -10.546875 
L 29.296875 -10.546875 
Q 29.6875 -5.46875 29.6875 3.515625 
L 29.6875 30.859375 
Q 25.390625 22.65625 21.484375 17.1875 
Q 17.578125 11.71875 11.328125 4.296875 
Q 8.984375 8.203125 4.6875 10.9375 
Q 13.28125 17.96875 20.109375 28.703125 
Q 26.953125 39.453125 28.90625 46.09375 
L 21.484375 46.09375 
Q 12.109375 46.09375 7.8125 45.703125 
L 7.8125 53.125 
Q 12.5 52.734375 21.484375 52.734375 
L 29.6875 52.734375 
L 29.6875 67.96875 
Q 21.875 66.40625 12.890625 64.84375 
Q 11.71875 68.75 9.765625 72.265625 
Q 16.40625 72.65625 28.125 75 
Q 39.84375 77.34375 50.390625 80.859375 
Q 52.34375 76.171875 55.46875 72.65625 
Q 47.65625 71.484375 37.5 69.53125 
L 37.5 52.734375 
L 44.140625 52.734375 
Q 52.34375 52.734375 58.59375 53.125 
L 58.59375 45.703125 
Q 52.34375 46.09375 44.53125 46.09375 
L 37.5 46.09375 
L 37.5 41.40625 
z
M 90.234375 80.078125 
Q 89.84375 76.171875 89.84375 66.796875 
L 89.84375 -1.5625 
Q 89.84375 -6.25 86.125 -7.609375 
Q 82.421875 -8.984375 73.046875 -10.546875 
Q 71.875 -4.6875 70.3125 -1.171875 
Q 78.515625 -1.5625 80.265625 -0.78125 
Q 82.03125 0 82.03125 2.34375 
L 82.03125 67.1875 
Q 82.03125 72.65625 81.640625 80.078125 
L 90.234375 80.078125 
z
M 72.265625 64.0625 
Q 71.875 59.375 71.875 51.5625 
L 71.875 26.953125 
Q 71.875 18.75 72.265625 12.890625 
L 63.671875 12.890625 
Q 64.0625 19.921875 64.0625 26.953125 
L 64.0625 51.5625 
Q 64.0625 57.8125 63.671875 64.0625 
L 72.265625 64.0625 
z
" id="SimHei-21033"/>
      </defs>
      <g style="fill:#555555;" transform="translate(251.724383 701.551164)rotate(-45)scale(0.2 -0.2)">
       <use xlink:href="#SimHei-24847"/>
       <use x="100" xlink:href="#SimHei-22823"/>
       <use x="200" xlink:href="#SimHei-21033"/>
      </g>
     </g>
    </g>
    <g id="xtick_3">
     <g id="line2d_5">
      <path clip-path="url(#pd83e78ae36)" d="M 363.272727 640.8 
L 363.272727 86.4 
" style="fill:none;stroke:#ffffff;stroke-linecap:square;stroke-width:0.8;"/>
     </g>
     <g id="line2d_6">
      <g>
       <use style="fill:#555555;stroke:#555555;stroke-width:0.8;" x="363.272727" xlink:href="#m7a6e19fdb0" y="640.8"/>
      </g>
     </g>
     <g id="text_3">
      <!-- 西班牙 -->
      <defs>
       <path d="M 80.46875 74.21875 
Q 86.328125 74.21875 92.96875 74.609375 
L 92.96875 67.96875 
Q 88.671875 68.359375 80.46875 68.359375 
L 62.890625 68.359375 
L 62.890625 52.34375 
L 85.15625 52.34375 
Q 84.765625 46.09375 84.765625 37.109375 
L 84.765625 6.640625 
Q 84.765625 0 85.15625 -8.59375 
L 78.125 -8.59375 
L 78.125 -0.78125 
L 22.65625 -0.78125 
L 22.65625 -8.984375 
L 15.234375 -8.984375 
Q 15.625 2.734375 15.625 8.59375 
L 15.625 37.109375 
Q 15.625 44.921875 15.234375 52.34375 
L 37.109375 52.34375 
L 37.109375 68.359375 
L 22.265625 68.359375 
Q 15.234375 68.359375 7.03125 67.96875 
L 7.03125 74.609375 
Q 15.234375 74.21875 21.875 74.21875 
z
M 78.125 5.078125 
L 78.125 46.09375 
L 62.890625 46.09375 
L 62.890625 30.859375 
Q 62.5 26.171875 64.0625 25.390625 
Q 65.625 24.609375 76.171875 25.78125 
Q 75.390625 21.484375 75 17.578125 
Q 62.109375 16.796875 58.984375 18.546875 
Q 55.859375 20.3125 56.25 26.5625 
L 56.25 46.09375 
L 43.75 46.09375 
Q 42.96875 33.203125 39.453125 25.78125 
Q 35.9375 18.359375 31.25 13.671875 
Q 28.90625 16.40625 24.609375 18.359375 
Q 30.46875 23.046875 33.59375 29.875 
Q 36.71875 36.71875 37.109375 46.09375 
L 22.65625 46.09375 
L 22.65625 5.078125 
z
M 56.25 52.34375 
L 56.25 68.359375 
L 43.75 68.359375 
L 43.75 52.34375 
z
" id="SimHei-35199"/>
       <path d="M 94.53125 63.671875 
Q 88.671875 64.0625 83.984375 64.0625 
L 81.25 64.0625 
L 81.25 39.453125 
Q 88.28125 39.453125 92.578125 39.84375 
L 92.578125 33.203125 
Q 84.765625 33.59375 81.25 33.59375 
L 81.25 1.953125 
L 85.15625 1.953125 
Q 91.015625 1.953125 96.09375 2.34375 
L 96.09375 -4.296875 
Q 90.234375 -3.90625 85.15625 -3.90625 
L 68.359375 -3.90625 
Q 63.28125 -3.90625 57.8125 -4.296875 
L 57.8125 2.34375 
Q 63.28125 1.953125 66.796875 1.953125 
L 74.21875 1.953125 
L 74.21875 33.59375 
Q 68.75 33.59375 62.109375 33.203125 
L 62.109375 39.84375 
Q 67.578125 39.453125 74.21875 39.453125 
L 74.21875 64.0625 
Q 69.53125 64.0625 61.71875 63.671875 
L 61.71875 70.3125 
Q 68.359375 69.921875 78.125 69.921875 
Q 87.890625 69.921875 94.53125 70.3125 
z
M 35.546875 62.5 
Q 28.515625 62.890625 25 62.890625 
L 25 39.453125 
Q 29.296875 39.453125 34.375 39.84375 
L 34.375 32.8125 
Q 29.296875 33.203125 25 33.203125 
L 25 8.984375 
Q 33.203125 12.5 36.328125 13.671875 
L 37.890625 7.421875 
Q 32.03125 5.078125 23.828125 1.75 
Q 15.625 -1.5625 7.8125 -5.46875 
Q 7.03125 -2.734375 3.90625 1.953125 
Q 8.984375 3.515625 17.96875 6.640625 
L 17.96875 33.203125 
Q 13.28125 33.203125 7.8125 32.8125 
L 7.8125 39.84375 
Q 12.890625 39.453125 17.96875 39.453125 
L 17.96875 62.890625 
Q 12.890625 62.890625 6.640625 62.5 
L 6.640625 69.53125 
Q 12.109375 69.140625 20.703125 69.140625 
Q 29.296875 69.140625 35.546875 69.53125 
z
M 60.15625 77.734375 
Q 58.984375 69.53125 58.984375 57.8125 
Q 58.984375 46.484375 58.203125 34.375 
Q 57.421875 23.4375 53.90625 12.6875 
Q 50.390625 1.953125 39.84375 -9.765625 
Q 37.890625 -7.03125 32.421875 -5.078125 
Q 42.96875 3.515625 47.265625 15.234375 
Q 51.953125 27.34375 52.140625 44.921875 
Q 52.34375 62.5 51.953125 78.90625 
Q 56.640625 77.734375 60.15625 77.734375 
z
M 45.703125 55.46875 
Q 45.703125 41.015625 44.53125 28.515625 
L 37.5 28.515625 
Q 39.0625 47.265625 38.671875 55.46875 
L 45.703125 55.46875 
z
" id="SimHei-29677"/>
       <path d="M 76.953125 76.171875 
Q 82.8125 76.171875 85.9375 76.5625 
L 85.9375 69.140625 
Q 82.03125 69.53125 76.5625 69.53125 
L 67.578125 69.53125 
L 67.578125 44.53125 
L 85.9375 44.53125 
Q 90.234375 44.53125 94.140625 44.921875 
L 94.140625 37.890625 
Q 90.234375 38.28125 85.546875 38.28125 
L 67.578125 38.28125 
L 67.578125 1.171875 
Q 67.578125 -5.078125 63.859375 -6.640625 
Q 60.15625 -8.203125 50.78125 -9.375 
Q 50 -3.90625 47.65625 -1.171875 
Q 53.125 -0.78125 56.4375 -0.1875 
Q 59.765625 0.390625 59.765625 3.90625 
L 59.765625 38.28125 
L 59.375 38.28125 
Q 55.078125 29.296875 50.390625 23.234375 
Q 45.703125 17.1875 40.421875 12.5 
Q 35.15625 7.8125 28.515625 3.515625 
Q 21.875 -0.78125 12.5 -5.859375 
Q 9.765625 -1.171875 5.859375 0.78125 
Q 15.234375 4.296875 23.046875 9.171875 
Q 30.859375 14.0625 36.125 18.9375 
Q 41.40625 23.828125 44.921875 28.703125 
Q 48.4375 33.59375 50.78125 38.28125 
L 31.640625 38.28125 
Q 26.953125 38.28125 23.828125 37.6875 
Q 20.703125 37.109375 17.578125 36.328125 
Q 16.40625 40.234375 14.453125 43.75 
Q 19.140625 47.265625 22.453125 54.09375 
Q 25.78125 60.9375 26.5625 64.84375 
L 35.9375 61.328125 
Q 32.8125 57.421875 30.46875 53.515625 
Q 28.125 49.609375 25.390625 44.53125 
L 59.765625 44.53125 
L 59.765625 69.53125 
L 21.875 69.53125 
Q 16.796875 69.53125 13.28125 69.140625 
L 13.28125 76.5625 
Q 17.1875 76.171875 21.875 76.171875 
z
" id="SimHei-29273"/>
      </defs>
      <g style="fill:#555555;" transform="translate(346.561805 700.998737)rotate(-45)scale(0.2 -0.2)">
       <use xlink:href="#SimHei-35199"/>
       <use x="100" xlink:href="#SimHei-29677"/>
       <use x="200" xlink:href="#SimHei-29273"/>
      </g>
     </g>
    </g>
    <g id="xtick_4">
     <g id="line2d_7">
      <path clip-path="url(#pd83e78ae36)" d="M 458.386364 640.8 
L 458.386364 86.4 
" style="fill:none;stroke:#ffffff;stroke-linecap:square;stroke-width:0.8;"/>
     </g>
     <g id="line2d_8">
      <g>
       <use style="fill:#555555;stroke:#555555;stroke-width:0.8;" x="458.386364" xlink:href="#m7a6e19fdb0" y="640.8"/>
      </g>
     </g>
     <g id="text_4">
      <!-- 德国 -->
      <defs>
       <path d="M 46.09375 66.015625 
Q 40.234375 66.015625 32.8125 65.625 
L 32.8125 72.65625 
Q 40.234375 72.265625 45.703125 72.265625 
L 56.640625 72.265625 
Q 57.03125 75.78125 57.421875 82.421875 
Q 61.71875 81.640625 66.015625 81.25 
Q 64.84375 77.34375 64.0625 71.875 
L 76.171875 71.875 
Q 86.328125 71.875 92.1875 72.265625 
L 92.1875 65.625 
Q 85.15625 66.015625 76.5625 66.015625 
L 63.28125 66.015625 
L 62.109375 58.203125 
L 88.28125 58.203125 
Q 87.890625 52.34375 87.890625 46.484375 
Q 87.890625 40.625 88.28125 34.765625 
L 35.9375 34.765625 
Q 36.328125 41.015625 36.328125 46.875 
Q 36.328125 52.734375 35.9375 58.203125 
L 54.6875 58.203125 
L 55.859375 66.015625 
z
M 33.203125 55.46875 
Q 29.6875 51.171875 23.4375 41.40625 
L 23.4375 8.59375 
Q 23.4375 0.390625 23.828125 -8.59375 
L 16.015625 -8.59375 
Q 16.40625 0.390625 16.40625 8.59375 
L 16.40625 32.8125 
Q 11.328125 26.171875 8.203125 22.65625 
Q 5.859375 26.953125 3.515625 29.6875 
Q 10.15625 34.765625 16.40625 43.546875 
Q 22.65625 52.34375 26.171875 59.765625 
Q 29.296875 57.421875 33.203125 55.46875 
z
M 75 27.734375 
Q 83.59375 27.734375 92.578125 28.125 
L 92.578125 21.484375 
Q 86.71875 21.875 74.609375 21.875 
L 50.390625 21.875 
Q 41.015625 21.875 32.8125 21.484375 
L 32.8125 28.125 
Q 41.40625 27.734375 50 27.734375 
z
M 53.515625 15.625 
Q 53.125 7.8125 53.125 4.296875 
Q 53.125 0.78125 54.484375 -0.1875 
Q 55.859375 -1.171875 58.984375 -1.171875 
L 68.75 -1.171875 
Q 71.875 -1.171875 72.84375 0.1875 
Q 73.828125 1.5625 74.609375 7.03125 
Q 78.515625 4.296875 82.8125 3.515625 
Q 80.46875 -3.90625 78.125 -5.46875 
Q 75.78125 -7.03125 71.484375 -7.03125 
L 54.296875 -7.03125 
Q 48.4375 -6.640625 47.453125 -3.703125 
Q 46.484375 -0.78125 46.484375 4.6875 
Q 46.484375 10.15625 46.09375 15.625 
z
M 30.46875 76.5625 
Q 17.96875 59.375 10.546875 50.78125 
Q 8.203125 53.90625 5.46875 56.640625 
Q 14.84375 66.015625 23.046875 80.859375 
Q 26.953125 78.515625 30.46875 76.5625 
z
M 42.1875 13.671875 
Q 39.0625 5.46875 35.9375 -3.515625 
Q 32.03125 -1.5625 28.90625 -0.78125 
Q 32.03125 5.46875 35.15625 16.015625 
L 42.1875 13.671875 
z
M 85.9375 16.40625 
Q 91.796875 8.984375 95.703125 3.125 
Q 92.578125 1.171875 89.453125 -1.5625 
Q 85.15625 6.25 80.078125 12.109375 
Q 83.203125 13.671875 85.9375 16.40625 
z
M 51.5625 40.625 
L 51.5625 52.734375 
L 42.96875 52.734375 
L 42.96875 40.625 
z
M 81.25 40.625 
L 81.25 52.734375 
L 72.65625 52.734375 
L 72.65625 40.625 
z
M 66.015625 40.625 
L 66.015625 52.734375 
L 58.203125 52.734375 
L 58.203125 40.625 
z
M 62.890625 20.3125 
Q 66.796875 15.234375 69.921875 9.375 
Q 67.1875 7.8125 63.671875 5.46875 
Q 61.328125 10.9375 57.03125 16.40625 
Q 60.15625 18.359375 62.890625 20.3125 
z
" id="SimHei-24503"/>
      </defs>
      <g style="fill:#555555;" transform="translate(449.022723 687.409028)rotate(-45)scale(0.2 -0.2)">
       <use xlink:href="#SimHei-24503"/>
       <use x="100" xlink:href="#SimHei-22269"/>
      </g>
     </g>
    </g>
    <g id="xtick_5">
     <g id="line2d_9">
      <path clip-path="url(#pd83e78ae36)" d="M 553.5 640.8 
L 553.5 86.4 
" style="fill:none;stroke:#ffffff;stroke-linecap:square;stroke-width:0.8;"/>
     </g>
     <g id="line2d_10">
      <g>
       <use style="fill:#555555;stroke:#555555;stroke-width:0.8;" x="553.5" xlink:href="#m7a6e19fdb0" y="640.8"/>
      </g>
     </g>
     <g id="text_5">
      <!-- 法国 -->
      <defs>
       <path d="M 94.921875 -4.6875 
Q 91.40625 -6.640625 87.890625 -9.765625 
Q 85.15625 -4.6875 83.203125 -1.953125 
Q 70.703125 -2.734375 56.046875 -4.09375 
Q 41.40625 -5.46875 36.328125 -7.03125 
Q 35.15625 -2.34375 33.203125 1.171875 
Q 38.28125 2.734375 44.140625 11.328125 
Q 50 19.921875 54.6875 32.8125 
L 43.75 32.8125 
Q 36.71875 32.8125 30.46875 32.421875 
L 30.46875 39.453125 
Q 36.71875 39.0625 44.140625 39.0625 
L 58.203125 39.0625 
L 58.203125 56.25 
L 49.21875 56.25 
Q 41.796875 56.25 36.328125 55.859375 
L 36.328125 62.890625 
Q 42.578125 62.5 48.828125 62.5 
L 58.203125 62.5 
Q 58.203125 73.4375 57.8125 80.46875 
L 66.40625 80.46875 
Q 66.015625 74.609375 66.015625 62.5 
L 77.734375 62.5 
Q 83.59375 62.5 89.84375 62.890625 
L 89.84375 55.859375 
Q 83.59375 56.25 78.515625 56.25 
L 66.015625 56.25 
L 66.015625 39.0625 
L 80.078125 39.0625 
Q 87.109375 39.0625 94.140625 39.453125 
L 94.140625 32.421875 
Q 87.109375 32.8125 80.078125 32.8125 
L 60.15625 32.8125 
L 64.0625 30.46875 
Q 61.71875 27.734375 56.640625 18.75 
Q 51.5625 9.765625 45.3125 1.5625 
Q 62.5 2.34375 79.296875 3.515625 
Q 74.609375 10.546875 69.53125 16.015625 
Q 72.65625 18.359375 75.390625 21.09375 
Q 82.421875 12.5 94.921875 -4.6875 
z
M 4.6875 -3.90625 
Q 10.15625 1.5625 15.8125 9.765625 
Q 21.484375 17.96875 26.953125 26.953125 
Q 28.90625 23.4375 32.421875 21.484375 
Q 28.90625 16.796875 23.4375 7.609375 
Q 17.96875 -1.5625 13.28125 -9.765625 
Q 10.15625 -6.640625 4.6875 -3.90625 
z
M 10.546875 53.515625 
Q 18.75 48.4375 28.125 41.40625 
Q 24.609375 39.0625 21.875 35.15625 
Q 14.453125 41.796875 5.46875 47.65625 
Q 8.203125 50 10.546875 53.515625 
z
M 16.40625 76.5625 
Q 24.21875 71.484375 32.8125 64.453125 
Q 29.6875 62.109375 26.953125 58.203125 
Q 19.53125 65.234375 11.328125 70.703125 
Q 14.0625 73.4375 16.40625 76.5625 
z
" id="SimHei-27861"/>
      </defs>
      <g style="fill:#555555;" transform="translate(543.998253 687.132815)rotate(-45)scale(0.2 -0.2)">
       <use xlink:href="#SimHei-27861"/>
       <use x="100" xlink:href="#SimHei-22269"/>
      </g>
     </g>
    </g>
    <g id="xtick_6">
     <g id="line2d_11">
      <path clip-path="url(#pd83e78ae36)" d="M 648.613636 640.8 
L 648.613636 86.4 
" style="fill:none;stroke:#ffffff;stroke-linecap:square;stroke-width:0.8;"/>
     </g>
     <g id="line2d_12">
      <g>
       <use style="fill:#555555;stroke:#555555;stroke-width:0.8;" x="648.613636" xlink:href="#m7a6e19fdb0" y="640.8"/>
      </g>
     </g>
     <g id="text_6">
      <!-- 伊朗 -->
      <defs>
       <path d="M 88.28125 73.4375 
Q 87.890625 67.578125 87.890625 51.953125 
Q 92.96875 51.953125 96.484375 52.34375 
L 96.484375 44.921875 
Q 92.96875 45.3125 87.890625 45.3125 
L 87.890625 31.640625 
Q 87.890625 26.953125 88.28125 18.359375 
L 80.46875 18.359375 
L 80.46875 24.21875 
L 59.765625 24.21875 
Q 55.078125 3.515625 42.578125 -9.375 
Q 37.890625 -5.46875 33.984375 -5.078125 
Q 47.65625 4.296875 51.953125 24.21875 
Q 42.578125 24.21875 37.5 23.828125 
L 37.5 31.25 
Q 42.578125 30.859375 53.125 30.859375 
Q 53.90625 36.328125 53.90625 45.3125 
Q 38.671875 45.3125 33.59375 44.921875 
L 33.59375 52.34375 
Q 39.0625 51.953125 53.90625 51.953125 
L 53.90625 66.796875 
Q 48.4375 66.796875 39.453125 66.40625 
L 39.453125 73.828125 
Q 45.703125 73.4375 53.90625 73.4375 
z
M 35.9375 76.5625 
Q 33.984375 73.828125 31.640625 68.75 
Q 29.296875 63.671875 27.34375 59.375 
L 27.34375 7.03125 
Q 27.34375 -1.5625 27.734375 -7.8125 
L 19.140625 -7.8125 
Q 19.53125 -1.953125 19.53125 7.03125 
L 19.53125 46.09375 
Q 12.890625 35.546875 9.375 30.859375 
Q 7.8125 33.203125 3.90625 36.71875 
Q 8.59375 41.40625 16.015625 54.09375 
Q 23.4375 66.796875 27.34375 80.859375 
Q 28.90625 79.296875 35.9375 76.5625 
z
M 80.46875 51.953125 
L 80.46875 66.796875 
L 62.109375 66.796875 
Q 61.71875 58.984375 61.71875 51.953125 
z
M 80.46875 30.859375 
L 80.46875 45.3125 
L 61.71875 45.3125 
Q 61.71875 38.28125 60.9375 30.859375 
z
" id="SimHei-20234"/>
       <path d="M 89.84375 74.21875 
Q 89.453125 65.625 89.453125 54.296875 
L 89.453125 1.5625 
Q 89.84375 -5.46875 85.9375 -7.421875 
Q 82.03125 -9.375 72.65625 -10.15625 
Q 72.265625 -5.46875 69.140625 -1.5625 
Q 79.6875 -1.171875 81.046875 -0.1875 
Q 82.421875 0.78125 82.421875 4.296875 
L 82.421875 23.828125 
L 61.71875 23.828125 
Q 61.328125 16.796875 59.765625 11.125 
Q 58.203125 5.46875 54.875 -0.390625 
Q 51.5625 -6.25 48.046875 -10.546875 
Q 44.140625 -7.421875 41.015625 -6.25 
Q 49.21875 2.34375 51.75 9.5625 
Q 54.296875 16.796875 54.6875 23.234375 
Q 55.078125 29.6875 55.078125 36.328125 
L 55.078125 51.171875 
Q 55.078125 59.765625 54.6875 74.21875 
L 89.84375 74.21875 
z
M 46.875 68.359375 
Q 46.484375 62.5 46.484375 54.6875 
L 46.484375 40.234375 
Q 46.484375 34.375 46.875 28.125 
L 19.140625 28.125 
L 19.140625 6.25 
L 34.765625 14.453125 
Q 32.03125 18.359375 29.6875 20.703125 
L 35.15625 25 
Q 41.796875 17.578125 49.21875 7.421875 
L 43.359375 2.34375 
Q 41.015625 6.25 38.671875 9.375 
Q 32.8125 6.25 26.5625 2.921875 
Q 20.3125 -0.390625 13.671875 -5.46875 
L 8.984375 0.390625 
Q 10.9375 3.125 11.328125 5.65625 
Q 11.71875 8.203125 11.71875 9.765625 
L 11.71875 53.90625 
Q 11.71875 61.71875 11.328125 68.359375 
L 46.875 68.359375 
z
M 82.421875 51.5625 
L 82.421875 67.96875 
L 62.109375 67.96875 
L 62.109375 51.5625 
z
M 82.421875 30.078125 
L 82.421875 45.3125 
L 62.109375 45.3125 
L 62.109375 30.078125 
z
M 39.453125 34.375 
L 39.453125 44.921875 
L 19.140625 44.921875 
L 19.140625 34.375 
z
M 39.453125 51.5625 
L 39.453125 62.109375 
L 19.140625 62.109375 
L 19.140625 51.5625 
z
M 29.296875 82.421875 
Q 32.8125 75 33.984375 72.265625 
Q 30.859375 71.09375 26.171875 69.140625 
Q 25 73.828125 21.875 79.296875 
Q 26.171875 81.25 29.296875 82.421875 
z
" id="SimHei-26391"/>
      </defs>
      <g style="fill:#555555;" transform="translate(639.277617 687.464271)rotate(-45)scale(0.2 -0.2)">
       <use xlink:href="#SimHei-20234"/>
       <use x="100" xlink:href="#SimHei-26391"/>
      </g>
     </g>
    </g>
    <g id="xtick_7">
     <g id="line2d_13">
      <path clip-path="url(#pd83e78ae36)" d="M 743.727273 640.8 
L 743.727273 86.4 
" style="fill:none;stroke:#ffffff;stroke-linecap:square;stroke-width:0.8;"/>
     </g>
     <g id="line2d_14">
      <g>
       <use style="fill:#555555;stroke:#555555;stroke-width:0.8;" x="743.727273" xlink:href="#m7a6e19fdb0" y="640.8"/>
      </g>
     </g>
     <g id="text_7">
      <!-- 英国 -->
      <defs>
       <path d="M 55.859375 57.421875 
Q 54.6875 53.90625 54.296875 47.65625 
L 79.296875 47.65625 
Q 78.90625 43.75 78.90625 37.5 
L 78.90625 26.171875 
Q 88.28125 26.171875 92.578125 26.5625 
L 92.578125 19.53125 
Q 88.28125 19.921875 81.640625 19.921875 
L 58.59375 19.921875 
Q 65.234375 10.9375 74.796875 5.46875 
Q 84.375 0 92.96875 -1.171875 
Q 89.0625 -4.296875 87.109375 -8.59375 
Q 78.90625 -6.25 69.140625 0.1875 
Q 59.375 6.640625 51.5625 17.578125 
Q 44.921875 6.25 35.734375 0.390625 
Q 26.5625 -5.46875 14.453125 -9.375 
Q 12.109375 -5.078125 7.8125 -2.34375 
Q 15.625 -1.171875 23.234375 1.953125 
Q 30.859375 5.078125 36.328125 9.953125 
Q 41.796875 14.84375 44.140625 19.921875 
L 17.96875 19.921875 
Q 12.109375 19.921875 6.25 19.53125 
L 6.25 26.5625 
Q 13.28125 26.171875 21.09375 26.171875 
L 21.09375 37.5 
Q 21.09375 42.578125 20.3125 47.65625 
L 46.484375 47.65625 
Q 46.484375 52.734375 46.09375 58.59375 
Q 50.78125 57.8125 55.859375 57.421875 
z
M 38.28125 79.296875 
Q 37.890625 74.609375 37.890625 70.703125 
L 61.71875 70.703125 
Q 61.71875 75 61.328125 79.296875 
L 69.53125 79.296875 
Q 69.140625 75 69.140625 70.703125 
L 81.25 70.703125 
Q 87.109375 70.703125 92.96875 71.09375 
L 92.96875 63.671875 
Q 87.109375 64.0625 81.25 64.0625 
L 69.140625 64.0625 
Q 69.140625 59.765625 69.53125 55.078125 
L 61.71875 55.078125 
L 61.71875 64.0625 
L 37.890625 64.0625 
L 37.890625 55.078125 
L 30.078125 55.078125 
Q 30.46875 60.15625 30.46875 64.0625 
L 19.140625 64.0625 
Q 16.015625 64.0625 8.984375 63.671875 
L 8.984375 71.09375 
Q 16.796875 70.703125 19.140625 70.703125 
L 30.46875 70.703125 
Q 30.46875 74.609375 30.078125 79.296875 
L 38.28125 79.296875 
z
M 46.09375 26.171875 
Q 46.484375 34.375 46.484375 41.015625 
L 28.125 41.015625 
L 28.125 26.171875 
z
M 71.875 26.171875 
L 71.875 41.015625 
L 53.90625 41.015625 
Q 53.90625 33.59375 53.125 26.171875 
z
" id="SimHei-33521"/>
      </defs>
      <g style="fill:#555555;" transform="translate(734.142661 686.967087)rotate(-45)scale(0.2 -0.2)">
       <use xlink:href="#SimHei-33521"/>
       <use x="100" xlink:href="#SimHei-22269"/>
      </g>
     </g>
    </g>
    <g id="xtick_8">
     <g id="line2d_15">
      <path clip-path="url(#pd83e78ae36)" d="M 838.840909 640.8 
L 838.840909 86.4 
" style="fill:none;stroke:#ffffff;stroke-linecap:square;stroke-width:0.8;"/>
     </g>
     <g id="line2d_16">
      <g>
       <use style="fill:#555555;stroke:#555555;stroke-width:0.8;" x="838.840909" xlink:href="#m7a6e19fdb0" y="640.8"/>
      </g>
     </g>
     <g id="text_8">
      <!-- 瑞士 -->
      <defs>
       <path d="M 68.359375 39.453125 
Q 66.796875 33.984375 65.625 28.90625 
L 92.1875 28.90625 
Q 91.796875 25 91.796875 19.921875 
L 91.796875 0.390625 
Q 92.1875 -5.46875 89.453125 -6.828125 
Q 86.71875 -8.203125 80.46875 -9.375 
Q 79.6875 -5.078125 77.734375 -1.953125 
Q 81.640625 -1.953125 83.203125 -1.5625 
Q 84.765625 -1.171875 84.765625 3.125 
L 84.765625 23.046875 
L 75.390625 23.046875 
L 75.390625 6.640625 
Q 75.390625 1.953125 75.78125 -1.953125 
L 68.359375 -1.953125 
Q 68.75 1.5625 68.75 6.640625 
L 68.75 23.046875 
L 61.328125 23.046875 
L 61.328125 7.03125 
Q 61.328125 1.953125 61.71875 -2.734375 
L 54.296875 -2.734375 
Q 54.6875 1.5625 54.6875 6.640625 
L 54.6875 23.046875 
L 47.265625 23.046875 
L 47.265625 -9.375 
L 39.84375 -9.375 
Q 40.234375 -4.6875 40.234375 0.390625 
L 40.234375 19.53125 
Q 40.234375 24.21875 39.84375 28.90625 
L 58.984375 28.90625 
Q 60.546875 34.375 61.328125 39.453125 
L 46.875 39.453125 
Q 42.578125 39.453125 37.890625 39.0625 
L 37.890625 45.703125 
Q 41.796875 45.3125 46.484375 45.3125 
L 84.375 45.3125 
Q 88.671875 45.3125 93.359375 45.703125 
L 93.359375 39.0625 
Q 89.0625 39.453125 84.375 39.453125 
z
M 26.953125 73.046875 
Q 31.640625 73.046875 36.328125 73.4375 
L 36.328125 66.40625 
Q 31.25 66.796875 23.828125 66.796875 
L 23.828125 46.875 
Q 28.90625 46.875 34.375 47.265625 
L 34.375 40.234375 
Q 28.90625 40.625 23.828125 40.625 
L 23.828125 17.1875 
Q 30.46875 19.53125 35.9375 21.875 
Q 35.546875 18.359375 35.9375 15.234375 
Q 28.515625 12.890625 20.3125 9.5625 
Q 12.109375 6.25 7.03125 3.515625 
Q 5.859375 7.421875 3.125 11.328125 
Q 8.59375 12.109375 16.40625 15.234375 
L 16.40625 40.625 
Q 9.765625 40.625 4.296875 40.234375 
L 4.296875 47.265625 
Q 10.15625 46.875 16.40625 46.875 
L 16.40625 66.796875 
Q 8.59375 66.796875 3.125 66.40625 
L 3.125 73.4375 
Q 8.59375 73.046875 12.109375 73.046875 
z
M 48.828125 76.5625 
Q 48.4375 72.265625 48.4375 67.96875 
L 48.4375 59.765625 
L 61.71875 59.765625 
L 61.71875 72.265625 
Q 61.71875 76.5625 61.328125 80.859375 
L 68.75 80.859375 
Q 68.359375 76.171875 68.359375 71.484375 
L 68.359375 59.765625 
L 83.203125 59.765625 
L 83.203125 68.359375 
Q 83.203125 72.65625 82.8125 76.5625 
L 90.625 76.5625 
Q 90.234375 72.65625 90.234375 64.84375 
Q 90.234375 57.421875 90.625 53.90625 
L 41.015625 53.90625 
Q 41.40625 58.203125 41.40625 65.234375 
Q 41.40625 72.265625 41.015625 76.5625 
z
" id="SimHei-29790"/>
       <path d="M 54.6875 80.859375 
Q 54.296875 74.609375 54.296875 67.578125 
L 54.296875 47.265625 
L 77.734375 47.265625 
Q 84.765625 47.265625 94.140625 47.65625 
L 94.140625 39.453125 
Q 85.9375 39.84375 78.125 39.84375 
L 54.296875 39.84375 
L 54.296875 1.5625 
L 70.3125 1.5625 
Q 77.34375 1.5625 85.9375 1.953125 
L 85.9375 -6.25 
Q 78.90625 -5.859375 70.703125 -5.859375 
L 29.6875 -5.859375 
Q 21.09375 -5.859375 13.671875 -6.25 
L 13.671875 1.953125 
Q 20.703125 1.5625 29.6875 1.5625 
L 45.703125 1.5625 
L 45.703125 39.84375 
L 21.484375 39.84375 
Q 12.890625 39.84375 6.25 39.453125 
L 6.25 47.65625 
Q 12.890625 47.265625 21.484375 47.265625 
L 45.703125 47.265625 
L 45.703125 67.578125 
Q 45.703125 74.609375 45.3125 80.859375 
L 54.6875 80.859375 
z
" id="SimHei-22763"/>
      </defs>
      <g style="fill:#555555;" transform="translate(829.31154 687.077572)rotate(-45)scale(0.2 -0.2)">
       <use xlink:href="#SimHei-29790"/>
       <use x="100" xlink:href="#SimHei-22763"/>
      </g>
     </g>
    </g>
    <g id="xtick_9">
     <g id="line2d_17">
      <path clip-path="url(#pd83e78ae36)" d="M 933.954545 640.8 
L 933.954545 86.4 
" style="fill:none;stroke:#ffffff;stroke-linecap:square;stroke-width:0.8;"/>
     </g>
     <g id="line2d_18">
      <g>
       <use style="fill:#555555;stroke:#555555;stroke-width:0.8;" x="933.954545" xlink:href="#m7a6e19fdb0" y="640.8"/>
      </g>
     </g>
     <g id="text_9">
      <!-- 土耳其 -->
      <defs>
       <path d="M 45.3125 49.21875 
L 45.3125 66.40625 
Q 45.3125 73.4375 44.921875 78.515625 
L 54.296875 78.515625 
Q 53.90625 73.4375 53.90625 66.40625 
L 53.90625 49.21875 
L 68.75 49.21875 
Q 78.90625 49.21875 88.28125 49.609375 
L 88.28125 41.40625 
Q 79.296875 41.796875 68.75 41.796875 
L 53.90625 41.796875 
L 53.90625 3.125 
L 78.90625 3.125 
Q 88.671875 3.125 96.09375 3.515625 
L 96.09375 -4.6875 
Q 88.671875 -4.296875 78.90625 -4.296875 
L 20.703125 -4.296875 
Q 10.15625 -4.296875 3.90625 -4.6875 
L 3.90625 3.515625 
Q 10.546875 3.125 20.703125 3.125 
L 45.3125 3.125 
L 45.3125 41.796875 
L 30.078125 41.796875 
Q 20.3125 41.796875 11.71875 41.015625 
L 11.71875 49.609375 
Q 20.3125 49.21875 30.078125 49.21875 
z
" id="SimHei-22303"/>
       <path d="M 8.203125 74.609375 
Q 16.40625 74.21875 22.65625 74.21875 
L 78.125 74.21875 
Q 84.765625 74.21875 92.1875 74.609375 
L 92.1875 67.1875 
Q 83.59375 67.578125 77.734375 67.578125 
L 74.21875 67.578125 
L 74.21875 16.40625 
Q 83.984375 16.796875 93.359375 17.578125 
L 93.75 10.9375 
Q 85.15625 10.546875 74.21875 9.765625 
L 74.21875 -10.15625 
L 66.015625 -10.15625 
Q 66.40625 -0.78125 66.40625 9.375 
Q 51.171875 8.59375 35.546875 7.609375 
Q 19.921875 6.640625 6.640625 5.078125 
L 5.46875 13.28125 
Q 15.625 13.28125 24.609375 14.0625 
L 24.609375 67.578125 
Q 17.1875 67.578125 8.203125 67.1875 
z
M 66.40625 34.375 
L 66.40625 48.4375 
L 32.421875 48.4375 
L 32.421875 34.375 
z
M 66.40625 54.6875 
L 66.40625 67.578125 
L 32.421875 67.578125 
L 32.421875 54.6875 
z
M 32.421875 14.453125 
Q 51.5625 15.234375 66.40625 16.015625 
L 66.40625 27.734375 
L 32.421875 27.734375 
L 32.421875 14.453125 
z
" id="SimHei-32819"/>
       <path d="M 73.828125 21.484375 
Q 86.71875 21.484375 94.140625 21.875 
L 94.140625 15.625 
Q 87.109375 16.015625 82.03125 16.015625 
L 19.140625 16.015625 
Q 10.546875 16.015625 5.078125 15.625 
L 5.078125 21.875 
Q 8.203125 21.484375 25.78125 21.484375 
L 25.78125 61.71875 
Q 16.40625 61.71875 10.546875 61.328125 
L 10.546875 67.96875 
Q 13.671875 67.578125 25.78125 67.578125 
Q 25.78125 76.171875 25.390625 80.078125 
L 34.765625 80.078125 
Q 33.984375 75.78125 33.984375 67.578125 
L 65.625 67.578125 
Q 65.625 74.609375 65.234375 79.6875 
L 74.21875 79.6875 
Q 73.828125 74.609375 73.828125 67.578125 
Q 82.421875 67.578125 88.671875 67.96875 
L 88.671875 61.328125 
Q 82.03125 61.71875 73.828125 61.71875 
z
M 65.625 21.484375 
L 65.625 31.25 
L 33.984375 31.25 
L 33.984375 21.484375 
z
M 65.625 37.109375 
L 65.625 46.875 
L 33.984375 46.875 
L 33.984375 37.109375 
z
M 65.625 52.34375 
L 65.625 61.71875 
L 33.984375 61.71875 
L 33.984375 52.34375 
z
M 65.234375 13.671875 
Q 81.25 3.515625 89.84375 -3.515625 
Q 85.9375 -6.25 83.203125 -9.765625 
Q 78.515625 -3.90625 59.765625 7.8125 
Q 63.671875 10.9375 65.234375 13.671875 
z
M 8.203125 -4.296875 
Q 12.5 -1.953125 19.921875 3.3125 
Q 27.34375 8.59375 32.421875 13.671875 
Q 35.546875 10.546875 38.671875 7.8125 
Q 34.375 4.6875 14.0625 -10.15625 
Q 11.71875 -6.640625 8.203125 -4.296875 
z
" id="SimHei-20854"/>
      </defs>
      <g style="fill:#555555;" transform="translate(917.354109 701.219708)rotate(-45)scale(0.2 -0.2)">
       <use xlink:href="#SimHei-22303"/>
       <use x="100" xlink:href="#SimHei-32819"/>
       <use x="200" xlink:href="#SimHei-20854"/>
      </g>
     </g>
    </g>
    <g id="text_10">
     <!-- X轴 -->
     <defs>
      <path d="M 46.875 1.953125 
L 37.5 1.953125 
L 24.21875 29.296875 
L 10.9375 1.953125 
L 1.5625 1.953125 
L 19.921875 37.109375 
L 3.515625 68.75 
L 12.890625 68.75 
L 24.21875 44.53125 
L 35.546875 68.75 
L 44.921875 68.75 
L 28.515625 37.109375 
z
" id="SimHei-88"/>
      <path d="M 65.625 60.9375 
Q 65.625 74.609375 65.234375 80.859375 
L 73.4375 80.859375 
Q 73.046875 75 73.046875 60.9375 
L 92.96875 60.9375 
Q 92.578125 47.265625 92.578125 26.171875 
Q 92.578125 5.078125 92.96875 -8.203125 
L 85.15625 -8.203125 
L 85.15625 1.5625 
L 53.515625 1.5625 
L 53.515625 -8.984375 
L 46.09375 -8.984375 
Q 46.484375 5.078125 46.484375 26.171875 
Q 46.484375 47.265625 46.09375 60.9375 
L 65.625 60.9375 
z
M 42.578125 14.84375 
Q 35.15625 14.0625 32.421875 13.671875 
Q 32.421875 3.125 32.8125 -9.375 
L 24.609375 -9.375 
Q 25 3.125 25 12.5 
Q 10.9375 10.15625 7.03125 8.984375 
Q 6.25 12.5 4.296875 16.796875 
Q 10.9375 17.1875 25 19.53125 
L 25 32.421875 
L 17.1875 32.421875 
Q 13.28125 32.421875 8.203125 31.25 
L 4.6875 38.671875 
Q 8.203125 40.625 10.9375 47.265625 
Q 13.671875 53.90625 16.015625 61.328125 
Q 10.9375 61.328125 5.078125 60.9375 
L 5.078125 67.96875 
Q 10.9375 67.578125 17.578125 67.578125 
Q 20.3125 75.390625 21.484375 82.03125 
Q 25.390625 80.46875 30.078125 79.6875 
Q 28.515625 76.953125 25 67.578125 
Q 33.984375 67.578125 42.96875 67.96875 
L 42.96875 60.9375 
Q 34.375 61.328125 23.046875 61.328125 
Q 17.96875 46.875 14.453125 38.671875 
L 25 38.671875 
Q 25 47.65625 24.609375 53.125 
L 32.8125 53.125 
Q 32.421875 48.4375 32.421875 38.671875 
Q 37.890625 38.671875 41.015625 39.0625 
L 41.015625 32.03125 
Q 38.28125 32.421875 32.421875 32.421875 
L 32.421875 20.3125 
L 43.359375 21.875 
Q 42.578125 18.359375 42.578125 14.84375 
z
M 65.625 8.203125 
L 65.625 28.90625 
L 53.515625 28.90625 
L 53.515625 8.203125 
z
M 85.15625 8.203125 
L 85.15625 28.90625 
L 73.046875 28.90625 
L 73.046875 8.203125 
z
M 65.625 35.15625 
L 65.625 54.296875 
L 53.515625 54.296875 
L 53.515625 35.15625 
z
M 85.15625 35.15625 
L 85.15625 54.296875 
L 73.046875 54.296875 
L 73.046875 35.15625 
z
" id="SimHei-36724"/>
     </defs>
     <g style="fill:#555555;" transform="translate(538.5 723.210666)scale(0.2 -0.2)">
      <use xlink:href="#SimHei-88"/>
      <use x="50" xlink:href="#SimHei-36724"/>
     </g>
    </g>
   </g>
   <g id="matplotlib.axis_2">
    <g id="ytick_1">
     <g id="line2d_19">
      <path clip-path="url(#pd83e78ae36)" d="M 135 592.232939 
L 972 592.232939 
" style="fill:none;stroke:#ffffff;stroke-linecap:square;stroke-width:0.8;"/>
     </g>
     <g id="line2d_20">
      <defs>
       <path d="M 0 0 
L -3.5 0 
" id="m513b9167f2" style="stroke:#555555;stroke-width:0.8;"/>
      </defs>
      <g>
       <use style="fill:#555555;stroke:#555555;stroke-width:0.8;" x="135" xlink:href="#m513b9167f2" y="592.232939"/>
      </g>
     </g>
     <g id="text_11">
      <!-- 25000 -->
      <defs>
       <path d="M 4.6875 3.90625 
Q 5.078125 9.765625 10.15625 14.453125 
Q 15.234375 19.140625 23.046875 29.09375 
Q 30.859375 39.0625 33.203125 44.53125 
Q 35.546875 50 34.953125 53.90625 
Q 34.375 57.8125 31.25 60.34375 
Q 28.125 62.890625 24.015625 62.5 
Q 19.921875 62.109375 16.203125 59.375 
Q 12.5 56.640625 10.546875 51.171875 
L 3.125 52.34375 
Q 6.25 61.328125 11.125 65.421875 
Q 16.015625 69.53125 22.65625 69.921875 
Q 26.5625 70.3125 29.6875 69.71875 
Q 32.8125 69.140625 36.125 66.984375 
Q 39.453125 64.84375 41.59375 60.546875 
Q 43.75 56.25 43.15625 50.1875 
Q 42.578125 44.140625 37.109375 35.734375 
Q 31.640625 27.34375 16.015625 9.375 
L 44.140625 9.375 
L 44.140625 2.34375 
L 4.6875 2.34375 
z
" id="SimHei-50"/>
       <path d="M 8.59375 20.703125 
Q 11.328125 10.15625 17.96875 8.984375 
Q 24.609375 7.8125 28.703125 10.34375 
Q 32.8125 12.890625 34.5625 16.984375 
Q 36.328125 21.09375 36.125 26.171875 
Q 35.9375 31.25 33.390625 34.765625 
Q 30.859375 38.28125 26.953125 39.453125 
Q 23.046875 40.625 18.15625 39.453125 
Q 13.28125 38.28125 10.15625 33.984375 
L 3.515625 34.765625 
Q 4.296875 37.109375 10.9375 68.359375 
L 41.796875 68.359375 
L 41.796875 61.328125 
L 16.796875 61.328125 
Q 14.84375 50.78125 12.890625 44.53125 
Q 18.75 47.265625 23.828125 47.0625 
Q 28.90625 46.875 33.59375 44.71875 
Q 38.28125 42.578125 40.421875 38.859375 
Q 42.578125 35.15625 43.546875 31.4375 
Q 44.53125 27.734375 44.328125 23.4375 
Q 44.140625 19.140625 42.578125 14.640625 
Q 41.015625 10.15625 37.890625 7.21875 
Q 34.765625 4.296875 30.265625 2.53125 
Q 25.78125 0.78125 19.921875 1.171875 
Q 14.0625 1.5625 8.78125 5.46875 
Q 3.515625 9.375 1.5625 18.75 
z
" id="SimHei-53"/>
       <path d="M 3.125 29.296875 
Q 3.90625 50 6.4375 56.046875 
Q 8.984375 62.109375 13.671875 66.015625 
Q 18.359375 69.921875 25.1875 69.921875 
Q 32.03125 69.921875 37.109375 64.25 
Q 42.1875 58.59375 43.75 50 
Q 45.3125 41.40625 44.71875 30.265625 
Q 44.140625 19.140625 40.8125 12.109375 
Q 37.5 5.078125 30.859375 2.34375 
Q 24.21875 -0.390625 17.578125 2.921875 
Q 10.9375 6.25 8.203125 11.71875 
Q 5.46875 17.1875 4.296875 23.234375 
Q 3.125 29.296875 3.90625 50 
z
M 12.890625 52.734375 
Q 10.546875 31.25 12.5 22.84375 
Q 14.453125 14.453125 18.9375 10.9375 
Q 23.4375 7.421875 28.125 9.5625 
Q 32.8125 11.71875 34.953125 18.15625 
Q 37.109375 24.609375 37.109375 32.21875 
Q 37.109375 39.84375 36.515625 46.09375 
Q 35.9375 52.34375 33 57.421875 
Q 30.078125 62.5 25.1875 62.6875 
Q 20.3125 62.890625 16.59375 57.8125 
Q 12.890625 52.734375 10.546875 31.25 
z
" id="SimHei-48"/>
      </defs>
      <g style="fill:#555555;" transform="translate(78 599.107939)scale(0.2 -0.2)">
       <use xlink:href="#SimHei-50"/>
       <use x="50" xlink:href="#SimHei-53"/>
       <use x="100" xlink:href="#SimHei-48"/>
       <use x="150" xlink:href="#SimHei-48"/>
       <use x="200" xlink:href="#SimHei-48"/>
      </g>
     </g>
    </g>
    <g id="ytick_2">
     <g id="line2d_21">
      <path clip-path="url(#pd83e78ae36)" d="M 135 529.55978 
L 972 529.55978 
" style="fill:none;stroke:#ffffff;stroke-linecap:square;stroke-width:0.8;"/>
     </g>
     <g id="line2d_22">
      <g>
       <use style="fill:#555555;stroke:#555555;stroke-width:0.8;" x="135" xlink:href="#m513b9167f2" y="529.55978"/>
      </g>
     </g>
     <g id="text_12">
      <!-- 50000 -->
      <g style="fill:#555555;" transform="translate(78 536.43478)scale(0.2 -0.2)">
       <use xlink:href="#SimHei-53"/>
       <use x="50" xlink:href="#SimHei-48"/>
       <use x="100" xlink:href="#SimHei-48"/>
       <use x="150" xlink:href="#SimHei-48"/>
       <use x="200" xlink:href="#SimHei-48"/>
      </g>
     </g>
    </g>
    <g id="ytick_3">
     <g id="line2d_23">
      <path clip-path="url(#pd83e78ae36)" d="M 135 466.88662 
L 972 466.88662 
" style="fill:none;stroke:#ffffff;stroke-linecap:square;stroke-width:0.8;"/>
     </g>
     <g id="line2d_24">
      <g>
       <use style="fill:#555555;stroke:#555555;stroke-width:0.8;" x="135" xlink:href="#m513b9167f2" y="466.88662"/>
      </g>
     </g>
     <g id="text_13">
      <!-- 75000 -->
      <defs>
       <path d="M 13.28125 2.34375 
Q 20.3125 32.03125 37.890625 61.328125 
L 4.296875 61.328125 
L 4.296875 68.359375 
L 46.09375 68.359375 
L 46.09375 61.71875 
Q 27.734375 32.03125 21.875 2.34375 
L 13.28125 2.34375 
z
" id="SimHei-55"/>
      </defs>
      <g style="fill:#555555;" transform="translate(78 473.76162)scale(0.2 -0.2)">
       <use xlink:href="#SimHei-55"/>
       <use x="50" xlink:href="#SimHei-53"/>
       <use x="100" xlink:href="#SimHei-48"/>
       <use x="150" xlink:href="#SimHei-48"/>
       <use x="200" xlink:href="#SimHei-48"/>
      </g>
     </g>
    </g>
    <g id="ytick_4">
     <g id="line2d_25">
      <path clip-path="url(#pd83e78ae36)" d="M 135 404.213461 
L 972 404.213461 
" style="fill:none;stroke:#ffffff;stroke-linecap:square;stroke-width:0.8;"/>
     </g>
     <g id="line2d_26">
      <g>
       <use style="fill:#555555;stroke:#555555;stroke-width:0.8;" x="135" xlink:href="#m513b9167f2" y="404.213461"/>
      </g>
     </g>
     <g id="text_14">
      <!-- 100000 -->
      <defs>
       <path d="M 21.875 56.25 
Q 16.796875 51.171875 8.984375 46.484375 
L 8.984375 53.90625 
Q 18.75 60.546875 25 69.53125 
L 29.6875 69.53125 
L 29.6875 2.34375 
L 21.875 2.34375 
z
" id="SimHei-49"/>
      </defs>
      <g style="fill:#555555;" transform="translate(68 411.088461)scale(0.2 -0.2)">
       <use xlink:href="#SimHei-49"/>
       <use x="50" xlink:href="#SimHei-48"/>
       <use x="100" xlink:href="#SimHei-48"/>
       <use x="150" xlink:href="#SimHei-48"/>
       <use x="200" xlink:href="#SimHei-48"/>
       <use x="250" xlink:href="#SimHei-48"/>
      </g>
     </g>
    </g>
    <g id="ytick_5">
     <g id="line2d_27">
      <path clip-path="url(#pd83e78ae36)" d="M 135 341.540301 
L 972 341.540301 
" style="fill:none;stroke:#ffffff;stroke-linecap:square;stroke-width:0.8;"/>
     </g>
     <g id="line2d_28">
      <g>
       <use style="fill:#555555;stroke:#555555;stroke-width:0.8;" x="135" xlink:href="#m513b9167f2" y="341.540301"/>
      </g>
     </g>
     <g id="text_15">
      <!-- 125000 -->
      <g style="fill:#555555;" transform="translate(68 348.415301)scale(0.2 -0.2)">
       <use xlink:href="#SimHei-49"/>
       <use x="50" xlink:href="#SimHei-50"/>
       <use x="100" xlink:href="#SimHei-53"/>
       <use x="150" xlink:href="#SimHei-48"/>
       <use x="200" xlink:href="#SimHei-48"/>
       <use x="250" xlink:href="#SimHei-48"/>
      </g>
     </g>
    </g>
    <g id="ytick_6">
     <g id="line2d_29">
      <path clip-path="url(#pd83e78ae36)" d="M 135 278.867142 
L 972 278.867142 
" style="fill:none;stroke:#ffffff;stroke-linecap:square;stroke-width:0.8;"/>
     </g>
     <g id="line2d_30">
      <g>
       <use style="fill:#555555;stroke:#555555;stroke-width:0.8;" x="135" xlink:href="#m513b9167f2" y="278.867142"/>
      </g>
     </g>
     <g id="text_16">
      <!-- 150000 -->
      <g style="fill:#555555;" transform="translate(68 285.742142)scale(0.2 -0.2)">
       <use xlink:href="#SimHei-49"/>
       <use x="50" xlink:href="#SimHei-53"/>
       <use x="100" xlink:href="#SimHei-48"/>
       <use x="150" xlink:href="#SimHei-48"/>
       <use x="200" xlink:href="#SimHei-48"/>
       <use x="250" xlink:href="#SimHei-48"/>
      </g>
     </g>
    </g>
    <g id="ytick_7">
     <g id="line2d_31">
      <path clip-path="url(#pd83e78ae36)" d="M 135 216.193982 
L 972 216.193982 
" style="fill:none;stroke:#ffffff;stroke-linecap:square;stroke-width:0.8;"/>
     </g>
     <g id="line2d_32">
      <g>
       <use style="fill:#555555;stroke:#555555;stroke-width:0.8;" x="135" xlink:href="#m513b9167f2" y="216.193982"/>
      </g>
     </g>
     <g id="text_17">
      <!-- 175000 -->
      <g style="fill:#555555;" transform="translate(68 223.068982)scale(0.2 -0.2)">
       <use xlink:href="#SimHei-49"/>
       <use x="50" xlink:href="#SimHei-55"/>
       <use x="100" xlink:href="#SimHei-53"/>
       <use x="150" xlink:href="#SimHei-48"/>
       <use x="200" xlink:href="#SimHei-48"/>
       <use x="250" xlink:href="#SimHei-48"/>
      </g>
     </g>
    </g>
    <g id="ytick_8">
     <g id="line2d_33">
      <path clip-path="url(#pd83e78ae36)" d="M 135 153.520823 
L 972 153.520823 
" style="fill:none;stroke:#ffffff;stroke-linecap:square;stroke-width:0.8;"/>
     </g>
     <g id="line2d_34">
      <g>
       <use style="fill:#555555;stroke:#555555;stroke-width:0.8;" x="135" xlink:href="#m513b9167f2" y="153.520823"/>
      </g>
     </g>
     <g id="text_18">
      <!-- 200000 -->
      <g style="fill:#555555;" transform="translate(68 160.395823)scale(0.2 -0.2)">
       <use xlink:href="#SimHei-50"/>
       <use x="50" xlink:href="#SimHei-48"/>
       <use x="100" xlink:href="#SimHei-48"/>
       <use x="150" xlink:href="#SimHei-48"/>
       <use x="200" xlink:href="#SimHei-48"/>
       <use x="250" xlink:href="#SimHei-48"/>
      </g>
     </g>
    </g>
    <g id="ytick_9">
     <g id="line2d_35">
      <path clip-path="url(#pd83e78ae36)" d="M 135 90.847663 
L 972 90.847663 
" style="fill:none;stroke:#ffffff;stroke-linecap:square;stroke-width:0.8;"/>
     </g>
     <g id="line2d_36">
      <g>
       <use style="fill:#555555;stroke:#555555;stroke-width:0.8;" x="135" xlink:href="#m513b9167f2" y="90.847663"/>
      </g>
     </g>
     <g id="text_19">
      <!-- 225000 -->
      <g style="fill:#555555;" transform="translate(68 97.722663)scale(0.2 -0.2)">
       <use xlink:href="#SimHei-50"/>
       <use x="50" xlink:href="#SimHei-50"/>
       <use x="100" xlink:href="#SimHei-53"/>
       <use x="150" xlink:href="#SimHei-48"/>
       <use x="200" xlink:href="#SimHei-48"/>
       <use x="250" xlink:href="#SimHei-48"/>
      </g>
     </g>
    </g>
    <g id="text_20">
     <!-- 数量 -->
     <defs>
      <path d="M 70.703125 76.953125 
Q 69.921875 75 68.75 71.671875 
Q 67.578125 68.359375 65.234375 59.765625 
L 83.203125 59.765625 
Q 87.109375 59.765625 92.578125 60.15625 
L 92.578125 53.125 
Q 88.28125 53.515625 85.9375 53.515625 
Q 85.9375 47.265625 83.78125 33.78125 
Q 81.640625 20.3125 76.171875 10.546875 
Q 80.078125 5.859375 84.953125 2.140625 
Q 89.84375 -1.5625 94.140625 -3.125 
Q 89.453125 -6.640625 87.890625 -9.765625 
Q 83.203125 -7.03125 79.296875 -3.515625 
Q 75.390625 0 71.484375 5.078125 
Q 67.1875 0.390625 62.296875 -2.921875 
Q 57.421875 -6.25 50 -10.15625 
Q 48.046875 -6.640625 44.53125 -4.6875 
Q 50.390625 -2.34375 57.03125 1.953125 
Q 63.671875 6.25 67.1875 10.546875 
Q 64.453125 16.015625 61.90625 22.265625 
Q 59.375 28.515625 57.421875 38.671875 
Q 56.25 35.546875 53.515625 30.46875 
Q 50.78125 32.03125 46.875 33.59375 
Q 53.125 44.53125 57.03125 57.421875 
Q 60.9375 70.3125 62.109375 79.6875 
Q 66.796875 77.734375 70.703125 76.953125 
z
M 32.8125 35.15625 
Q 31.25 33.59375 29.296875 30.078125 
L 50.78125 30.078125 
Q 48.4375 20.3125 42.578125 10.546875 
Q 48.828125 8.203125 52.34375 6.25 
Q 50.390625 3.515625 48.828125 0.390625 
Q 45.3125 2.734375 38.28125 5.078125 
Q 30.46875 -3.515625 11.328125 -10.15625 
Q 9.375 -5.859375 6.25 -4.296875 
Q 24.609375 0 31.25 7.421875 
Q 20.3125 10.15625 13.28125 12.109375 
Q 15.625 15.625 19.53125 23.828125 
Q 15.625 23.828125 6.640625 23.4375 
L 6.640625 30.46875 
Q 14.0625 30.078125 21.875 30.078125 
Q 23.4375 33.59375 24.21875 37.890625 
Q 28.515625 36.328125 32.8125 35.15625 
z
M 27.734375 61.71875 
Q 27.734375 71.09375 27.34375 79.6875 
L 35.15625 79.6875 
Q 34.765625 71.484375 34.765625 61.71875 
Q 48.046875 61.71875 53.515625 62.109375 
L 53.515625 55.078125 
Q 48.046875 55.46875 34.765625 55.46875 
Q 34.765625 44.140625 35.15625 37.890625 
L 27.34375 37.890625 
Q 27.734375 43.359375 27.734375 51.5625 
Q 25.78125 48.4375 20.3125 43.546875 
Q 14.84375 38.671875 10.15625 35.9375 
Q 8.203125 39.453125 4.296875 41.015625 
Q 7.8125 42.1875 13.671875 46.484375 
Q 19.53125 50.78125 22.65625 55.46875 
Q 14.84375 55.46875 7.8125 55.078125 
L 7.8125 62.109375 
Q 14.453125 61.71875 27.734375 61.71875 
z
M 62.109375 49.609375 
Q 65.625 26.5625 71.875 17.578125 
Q 75.78125 26.5625 77.140625 35.734375 
Q 78.515625 44.921875 78.90625 53.515625 
L 63.671875 53.515625 
L 62.109375 49.609375 
z
M 22.65625 15.625 
Q 27.34375 14.453125 35.546875 12.5 
Q 38.671875 16.40625 41.40625 23.828125 
L 26.953125 23.828125 
Q 25 19.921875 22.65625 15.625 
z
M 51.953125 75.390625 
Q 50 72.265625 48.828125 69.53125 
Q 47.65625 66.796875 45.703125 62.890625 
Q 42.578125 64.453125 39.453125 65.234375 
Q 42.578125 70.3125 45.3125 78.125 
Q 49.21875 76.171875 51.953125 75.390625 
z
M 40.234375 52.734375 
Q 45.3125 47.65625 50 42.578125 
Q 47.65625 40.625 44.921875 37.890625 
Q 39.453125 44.53125 35.9375 48.4375 
Q 38.28125 50.390625 40.234375 52.734375 
z
M 14.453125 78.125 
Q 19.921875 72.65625 23.4375 67.1875 
L 17.578125 63.671875 
Q 14.84375 69.140625 9.375 73.828125 
Q 12.890625 76.171875 14.453125 78.125 
z
" id="SimHei-25968"/>
      <path d="M 82.03125 39.0625 
Q 81.640625 34.375 81.640625 26.5625 
Q 81.640625 19.140625 82.03125 14.84375 
L 53.515625 14.84375 
L 53.515625 9.765625 
L 71.484375 9.765625 
Q 78.125 9.765625 83.984375 10.15625 
L 83.984375 4.296875 
Q 78.515625 4.6875 71.484375 4.6875 
L 53.515625 4.6875 
L 53.515625 -1.171875 
L 80.078125 -1.171875 
Q 86.328125 -1.171875 92.578125 -0.78125 
L 92.578125 -6.640625 
Q 86.328125 -6.25 80.078125 -6.25 
L 19.921875 -6.25 
Q 14.0625 -6.25 7.421875 -6.640625 
L 7.421875 -0.78125 
Q 14.453125 -0.78125 19.921875 -1.171875 
L 46.484375 -1.171875 
L 46.484375 4.6875 
L 26.953125 4.6875 
Q 21.09375 4.6875 15.234375 3.90625 
L 15.234375 10.15625 
Q 21.484375 9.765625 26.953125 9.765625 
L 46.484375 9.765625 
L 46.484375 14.84375 
L 17.96875 14.84375 
Q 18.359375 21.484375 18.359375 27.734375 
Q 18.359375 33.984375 17.96875 39.0625 
L 82.03125 39.0625 
z
M 81.25 77.34375 
Q 80.859375 71.484375 80.859375 66.40625 
Q 80.859375 61.328125 81.25 53.125 
L 18.75 53.125 
Q 19.140625 61.328125 19.140625 66.40625 
Q 19.140625 71.484375 18.75 77.34375 
L 81.25 77.34375 
z
M 76.5625 48.4375 
Q 85.9375 48.828125 93.75 49.21875 
L 93.75 42.96875 
Q 85.9375 43.359375 76.953125 43.359375 
L 25.78125 43.359375 
Q 15.234375 43.359375 5.078125 42.96875 
L 5.078125 49.21875 
Q 15.234375 48.828125 25.78125 48.4375 
z
M 73.828125 57.8125 
L 73.828125 62.890625 
L 26.171875 62.890625 
L 26.171875 57.8125 
z
M 73.828125 67.96875 
L 73.828125 72.65625 
L 26.171875 72.65625 
L 26.171875 67.96875 
z
M 74.21875 29.296875 
L 74.21875 33.984375 
L 53.515625 33.984375 
L 53.515625 29.296875 
z
M 46.484375 29.296875 
L 46.484375 33.984375 
L 25.78125 33.984375 
L 25.78125 29.296875 
z
M 46.484375 19.921875 
L 46.484375 24.21875 
L 25.78125 24.21875 
L 25.78125 19.921875 
z
M 74.21875 19.921875 
L 74.21875 24.21875 
L 53.515625 24.21875 
L 53.515625 19.921875 
z
" id="SimHei-37327"/>
     </defs>
     <g style="fill:#555555;" transform="translate(61.5 383.6)rotate(-90)scale(0.2 -0.2)">
      <use xlink:href="#SimHei-25968"/>
      <use x="100" xlink:href="#SimHei-37327"/>
     </g>
    </g>
   </g>
   <g id="line2d_37">
    <path clip-path="url(#pd83e78ae36)" d="M 173.045455 111.6 
L 268.159091 377.705221 
L 363.272727 378.547549 
L 458.386364 454.201573 
L 553.5 510.055893 
L 648.613636 528.386538 
L 743.727273 570.377555 
L 838.840909 609.112075 
L 933.954545 615.6 
" style="fill:none;stroke:#ff0000;stroke-linecap:square;stroke-width:3;"/>
   </g>
   <g id="patch_3">
    <path d="M 135 640.8 
L 135 86.4 
" style="fill:none;stroke:#ffffff;stroke-linecap:square;stroke-linejoin:miter;"/>
   </g>
   <g id="patch_4">
    <path d="M 972 640.8 
L 972 86.4 
" style="fill:none;stroke:#ffffff;stroke-linecap:square;stroke-linejoin:miter;"/>
   </g>
   <g id="patch_5">
    <path d="M 135 640.8 
L 972 640.8 
" style="fill:none;stroke:#ffffff;stroke-linecap:square;stroke-linejoin:miter;"/>
   </g>
   <g id="patch_6">
    <path d="M 135 86.4 
L 972 86.4 
" style="fill:none;stroke:#ffffff;stroke-linecap:square;stroke-linejoin:miter;"/>
   </g>
   <g id="text_21">
    <!-- Title -->
    <defs>
     <path d="M 44.53125 61.328125 
L 28.90625 61.328125 
L 28.90625 1.953125 
L 19.921875 1.953125 
L 19.921875 61.328125 
L 4.296875 61.328125 
L 4.296875 68.75 
L 44.53125 68.75 
z
" id="SimHei-84"/>
     <path d="M 28.125 58.203125 
L 20.3125 58.203125 
L 20.3125 68.359375 
L 28.125 68.359375 
z
M 28.125 1.953125 
L 20.3125 1.953125 
L 20.3125 45.703125 
L 28.125 45.703125 
z
" id="SimHei-105"/>
     <path d="M 42.96875 3.125 
Q 41.015625 2.34375 38.46875 1.75 
Q 35.9375 1.171875 31.640625 1.171875 
Q 24.609375 1.171875 20.3125 5.078125 
Q 16.015625 8.984375 16.015625 16.015625 
L 16.015625 39.453125 
L 2.734375 39.453125 
L 2.734375 45.703125 
L 16.015625 45.703125 
L 16.015625 60.9375 
L 23.828125 60.9375 
L 23.828125 45.703125 
L 39.84375 45.703125 
L 39.84375 39.453125 
L 23.828125 39.453125 
L 23.828125 15.625 
Q 23.828125 12.5 25.390625 10.34375 
Q 26.953125 8.203125 31.25 8.203125 
Q 35.546875 8.203125 38.28125 8.984375 
Q 41.015625 9.765625 42.96875 10.9375 
z
" id="SimHei-116"/>
     <path d="M 28.515625 1.953125 
L 20.703125 1.953125 
L 20.703125 68.75 
L 28.515625 68.75 
z
" id="SimHei-108"/>
     <path d="M 44.53125 16.796875 
Q 43.75 9.765625 38.28125 5.46875 
Q 32.8125 1.171875 25.390625 1.171875 
Q 16.015625 1.171875 9.953125 7.21875 
Q 3.90625 13.28125 3.90625 23.828125 
Q 3.90625 34.375 9.953125 40.421875 
Q 16.015625 46.484375 25.390625 46.484375 
Q 33.59375 46.484375 38.859375 41.203125 
Q 44.140625 35.9375 44.140625 23.828125 
L 12.5 23.828125 
Q 12.5 15.234375 16.203125 11.71875 
Q 19.921875 8.203125 25.390625 8.203125 
Q 29.6875 8.203125 32.421875 10.34375 
Q 35.15625 12.5 35.9375 16.796875 
z
M 35.15625 30.078125 
Q 34.375 35.546875 31.640625 37.6875 
Q 28.90625 39.84375 24.609375 39.84375 
Q 20.703125 39.84375 17.578125 37.6875 
Q 14.453125 35.546875 12.890625 30.078125 
z
" id="SimHei-101"/>
    </defs>
    <g transform="translate(516 80.4)scale(0.3 -0.3)">
     <use xlink:href="#SimHei-84"/>
     <use x="50" xlink:href="#SimHei-105"/>
     <use x="100" xlink:href="#SimHei-116"/>
     <use x="150" xlink:href="#SimHei-108"/>
     <use x="200" xlink:href="#SimHei-101"/>
    </g>
   </g>
  </g>
 </g>
 <defs>
  <clipPath id="pd83e78ae36">
   <rect height="554.4" width="837" x="135" y="86.4"/>
  </clipPath>
 </defs>
</svg>
